# xmcd
#
# Track frame offsets:
#	150
#	12866
#	27107
#	43893
#	71169
#	87820
#	106212
#	128042
#	146422
#	161835
#	182565
#	193321
#	212226
#	231462
#	249532
#	276594
#
# Disc length: 3700 seconds
#
# Revision: 1
# Processed by: cddbd v1.5.1PL0 Copyright (c) Steve Scherf et al.
# Submitted via: audiograbber 1.83.01
#
DISCID=ef0e7210
DTITLE=Sound Choice - SC8862
DYEAR=2004
DGENRE=Karaoke
TTITLE0=Wills, Mark - That's A Woman
TTITLE1=McBride, Martina - City of Love
TTITLE2=Johnson, Carolyn Dawn - Simple Life
TTITLE3=McBride, Martina - God's Will
TTITLE4=Bentley, Dierks - My Last Name
TTITLE5=Keith, Toby - The Taliban Song
TTITLE6=Allen, Gary - Songs About Rain
TTITLE7=Twain, Shania - She's Not Just A Pretty Face (Country Version)
TTITLE8=Twain, Shania and Alison Kraus and Union Station - Coat of Many Colors
TTITLE9=Keith, Toby - American Soldier
TTITLE10=Byrd, Tracy - Drinkin' Bone
TTITLE11=Rimes, LeAnn - This Love
TTITLE12=Keith, Toby - Weed With Willie
TTITLE13=Otto, James - Days of Our Lives
TTITLE14=Krauss, Alison and James Taylor - How's The World Treating You
TTITLE15=Data - Data Track
EXTD=Sound Choice Spotlight Series\nCountry Hits - Vol. 168
EXTT0=
EXTT1=
EXTT2=
EXTT3=
EXTT4=
EXTT5=
EXTT6=
EXTT7=
EXTT8=
EXTT9=
EXTT10=
EXTT11=
EXTT12=
EXTT13=
EXTT14=
EXTT15=
PLAYORDER=
